<svg width="70" height="70" viewBox="0 0 70 70" fill="none" xmlns="http://www.w3.org/2000/svg">
<path d="M70 53.5938V16.4062C70 7.34562 62.6544 0 53.5938 0H16.4062C7.34562 0 0 7.34562 0 16.4062V53.5938C0 62.6544 7.34562 70 16.4062 70H53.5938C62.6544 70 70 62.6544 70 53.5938Z" fill="url(#paint0_linear)"/>
<path d="M33.2697 30.6753C33.2697 32.471 32.7372 34.2264 31.7396 35.7195C30.742 37.2125 29.324 38.3762 27.665 39.0634C26.006 39.7506 24.1804 39.9304 22.4192 39.5801C20.658 39.2298 19.0403 38.3651 17.7705 37.0953C16.5008 35.8256 15.636 34.2078 15.2857 32.4466C14.9354 30.6854 15.1152 28.8599 15.8024 27.2009C16.4896 25.5418 17.6533 24.1239 19.1463 23.1262C20.6394 22.1286 22.3948 21.5961 24.1905 21.5961C25.3828 21.5961 26.5634 21.8309 27.665 22.2872C28.7665 22.7435 29.7674 23.4123 30.6105 24.2553C31.4536 25.0984 32.1223 26.0993 32.5786 27.2009C33.0349 28.3024 33.2697 29.483 33.2697 30.6753Z" fill="url(#paint1_linear)"/>
<g opacity="0.95">
<path opacity="0.95" d="M34.1349 25.0639C28.4035 25.0639 23.7583 29.7092 23.7583 35.4405V35.5754C20.8026 36.1799 18.5699 38.7913 18.5699 41.9268C18.5702 43.6467 19.2536 45.296 20.4698 46.5121C21.686 47.7281 23.3355 48.4114 25.0553 48.4114C25.1989 48.4114 25.3467 48.3932 25.4877 48.3846V48.4114H46.2409V48.3846C51.0505 48.1545 54.8873 44.1984 54.8873 39.3309C54.8873 34.3173 50.8231 30.2514 45.8086 30.2514C44.9473 30.2514 44.112 30.3785 43.3234 30.6025C42.4404 28.9309 41.1181 27.5318 39.499 26.5559C37.88 25.58 36.0253 25.0641 34.1349 25.0639V25.0639Z" fill="url(#paint2_linear)"/>
</g>
<defs>
<linearGradient id="paint0_linear" x1="34.9989" y1="70" x2="34.9989" y2="0" gradientUnits="userSpaceOnUse">
<stop stop-color="#183139"/>
<stop offset="1" stop-color="#01212B"/>
</linearGradient>
<linearGradient id="paint1_linear" x1="24.1822" y1="34.9906" x2="24.1822" y2="17.2621" gradientUnits="userSpaceOnUse">
<stop stop-color="#FFEF3F"/>
<stop offset="1" stop-color="#FFC001"/>
</linearGradient>
<linearGradient id="paint2_linear" x1="36.7216" y1="42.181" x2="36.7216" y2="28.6844" gradientUnits="userSpaceOnUse">
<stop stop-color="white"/>
<stop offset="1" stop-color="white" stop-opacity="0.755"/>
</linearGradient>
</defs>
</svg>
